<?xml version="1.0" encoding="utf-8"?>
<svg height="100%" stroke-miterlimit="10" viewBox="0 0 40 40" width="100%" fill-rule="evenodd" stroke-linecap="round" stroke-linejoin="round" fill="#fff" xmlns="http://www.w3.org/2000/svg">
  <path d="M32 21.61v1c0 1 0 2.5-1.001 2.5h-.5c-.276 0-.496-.225-.534-.499-.23-1.648-1.599-2.501-2.969-2.501s-2.741.834-2.969 2.501c-.037.274-.257.39-.534.39H16.72c-.405 0-.722-.223-.807-.618-.319-1.499-1.624-2.273-2.928-2.273-1.359 0-2.718.819-2.963 2.458-.043.29-.291.54-.584.541h-.03c-.03.001-.06.001-.091-.002-.984.002-1.243-1.625-1.312-2.483-.027-.337.062-.67.225-.966l1.658-2.997C10.058 18.323 10.5 18 11 18h11c1 0 .881-.79.194-1.288-.563-.407-1.029-.709-1.595-.924-.882-.335-1.912-.505-3.062-.505-.999 0-2.084.129-3.225.386-1.391.31-3.239.884-4.402 1.285-.285.097-.587-.069-.69-.378l-.003-.012c-.104-.318.043-.668.334-.782.913-.361 2.612-.978 4.52-1.405 1.208-.27 2.32-.379 3.322-.378h.099c1.34 0 2.537.179 3.499.543 1.37.521 3.328 2.241 4.05 2.903.184.168.419.266.668.288.843.072 2.924.347 4.79 1.375 1.001.5 1.501 1.5 1.501 2.5zM14.986 25a2.002 2.002 0 1 1-4.003 0 2.002 2.002 0 1 1 4.003 0zm14.012 0a2.002 2.002 0 1 1-4.003 0 2.002 2.002 0 1 1 4.003 0z"/>
</svg>